<?xml version="1.0" encoding="UTF-8" standalone="no"?><!DOCTYPE svg PUBLIC "-//W3C//DTD SVG 1.1//EN" "http://www.w3.org/Graphics/SVG/1.1/DTD/svg11.dtd"><svg width="100%" height="100%" viewBox="0 0 5 5" version="1.1" xmlns="http://www.w3.org/2000/svg" xmlns:xlink="http://www.w3.org/1999/xlink" xml:space="preserve" xmlns:serif="http://www.serif.com/" style="fill-rule:evenodd;clip-rule:evenodd;stroke-linejoin:round;stroke-miterlimit:2;"><g><g><g><path d="M4.5,2.5c0,-1.104 -0.896,-2 -2,-2c-1.103,-0 -2,0.896 -2,2c0,1.104 0.897,2 2,2c1.104,0 2,-0.896 2,-2Z" style="fill:#152914;"/><path d="M4.5,2.5c0,-1.104 -0.896,-2 -2,-2c-1.103,-0 -2,0.896 -2,2c0,1.104 0.897,2 2,2c1.104,0 2,-0.896 2,-2Zm-0.144,0c0,1.025 -0.831,1.856 -1.856,1.856c-1.024,0 -1.856,-0.831 -1.856,-1.856c0,-1.024 0.832,-1.856 1.856,-1.856c1.025,-0 1.856,0.832 1.856,1.856Z" style="fill:#fff;stroke:#fff;stroke-width:0.02px;"/></g><g><g><g><path d="M3.169,1.199c0,-0.05 -0.008,-0.09 -0.023,-0.122c0,-0.02 0.014,-0.062 0.043,-0.127c0.006,-0.014 0.013,-0.014 0.02,0.001c0.008,0.017 0.027,0.065 0.056,0.144c0.031,0.082 0.05,0.132 0.055,0.151c0.004,0.014 0.006,0.025 0.006,0.032c0,0.023 -0.022,0.009 -0.065,-0.041c-0.006,-0.007 -0.008,-0.004 -0.008,0.01c0,0.004 0.014,0.194 0.041,0.57c0.028,0.375 0.042,0.582 0.042,0.621c0,0.119 -0.019,0.224 -0.055,0.315c-0.008,0.018 -0.014,0.031 -0.019,0.039c-0.007,0.012 -0.011,0.013 -0.013,0.005c-0.002,-0.009 -0.001,-0.028 0.003,-0.058c0.004,-0.041 0.006,-0.088 0.006,-0.142c0,-0.049 -0.015,-0.283 -0.045,-0.704c-0.03,-0.42 -0.044,-0.652 -0.044,-0.694Z" style="fill:#fff;fill-rule:nonzero;"/></g><g><path d="M2.785,2.334c0.049,-0 0.096,-0.019 0.142,-0.057c0.014,-0.011 0.02,-0.052 0.02,-0.122c0,-0.043 -0.011,-0.215 -0.033,-0.517c-0.022,-0.302 -0.032,-0.48 -0.032,-0.535c0,-0.049 -0.008,-0.089 -0.024,-0.121c0,-0.017 0.015,-0.059 0.043,-0.127c0.004,-0.008 0.006,-0.012 0.009,-0.012c0.004,-0 0.007,0.004 0.011,0.013c0.008,0.018 0.027,0.066 0.057,0.145c0.03,0.081 0.049,0.131 0.055,0.15c0.003,0.015 0.005,0.026 0.005,0.032c0,0.023 -0.022,0.009 -0.065,-0.04c-0.005,-0.007 -0.007,-0.004 -0.007,0.01c0,0.003 0.009,0.137 0.029,0.403c0.019,0.265 0.029,0.424 0.029,0.475c0,0.148 -0.027,0.264 -0.08,0.349c-0.045,0.071 -0.097,0.107 -0.158,0.108c-0.021,0.003 -0.042,0.003 -0.064,0c-0.072,-0.001 -0.142,-0.03 -0.211,-0.088c-0.063,-0.06 -0.128,-0.119 -0.192,-0.179c-0.008,-0.007 -0.013,-0.011 -0.015,-0.011c-0.003,-0 -0.001,0.008 0.006,0.023c0.023,0.054 0.035,0.093 0.035,0.116c0,0.086 -0.025,0.152 -0.075,0.196c-0.036,0.032 -0.117,0.075 -0.243,0.128c-0.077,0.033 -0.135,0.059 -0.174,0.077c-0.076,0.036 -0.129,0.065 -0.158,0.088c-0.052,0.041 -0.128,0.119 -0.229,0.234c-0.059,0.069 -0.119,0.104 -0.18,0.104c-0.05,-0 -0.094,-0.023 -0.132,-0.069c-0.04,-0.047 -0.06,-0.105 -0.06,-0.174c0,-0.094 0.039,-0.217 0.117,-0.369c0.008,-0.016 0.014,-0.023 0.019,-0.023c0.002,-0 0.003,0.002 0.003,0.005c0,0.016 -0.017,0.069 -0.051,0.16c-0.033,0.09 -0.05,0.162 -0.05,0.214c0,0.041 0.009,0.073 0.028,0.097c0.02,0.026 0.048,0.039 0.083,0.039c0.063,0 0.127,-0.032 0.191,-0.096c0.041,-0.048 0.082,-0.097 0.123,-0.145c0.053,-0.06 0.123,-0.113 0.209,-0.16c0.05,-0.028 0.137,-0.068 0.261,-0.12c0.134,-0.056 0.221,-0.1 0.263,-0.131c0.012,-0.009 0.016,-0.021 0.012,-0.037c-0.022,-0.081 -0.114,-0.19 -0.276,-0.326c-0.155,-0.125 -0.31,-0.25 -0.465,-0.374c-0.005,-0.005 -0.008,-0.022 -0.008,-0.051c0,-0.037 0.004,-0.076 0.012,-0.117c0.009,-0.045 0.02,-0.073 0.033,-0.085c0.087,-0.079 0.273,-0.183 0.559,-0.314c0.289,-0.132 0.48,-0.198 0.572,-0.198c0.027,-0 0.046,0.006 0.056,0.017c0.011,0.011 0.016,0.029 0.016,0.056c0,0.061 -0.036,0.136 -0.109,0.227c-0.027,0.03 -0.054,0.061 -0.082,0.092c-0.043,0.051 -0.073,0.092 -0.088,0.124c-0.01,0.021 -0.017,0.032 -0.019,0.032c-0.003,-0 -0.001,-0.014 0.004,-0.043c0.004,-0.016 0.016,-0.043 0.037,-0.082c0.019,-0.036 0.033,-0.059 0.042,-0.07c0.082,-0.093 0.131,-0.154 0.147,-0.183c0.002,-0.003 0.003,-0.006 0.003,-0.009c0,-0.018 -0.023,-0.026 -0.069,-0.026c-0.073,-0 -0.246,0.063 -0.519,0.191c-0.272,0.127 -0.459,0.231 -0.56,0.313c-0.006,0.006 -0.005,0.011 0.003,0.015c0.09,0.054 0.177,0.111 0.264,0.169c0.208,0.141 0.392,0.28 0.552,0.417c0.049,0.042 0.097,0.085 0.146,0.128c0.057,0.043 0.113,0.064 0.169,0.064c0.021,0.004 0.043,0.004 0.063,-0Z" style="fill:#fff;fill-rule:nonzero;"/></g><g><path d="M1.645,2.271c-0.027,-0.084 -0.046,-0.168 -0.056,-0.254c-0.002,-0.015 -0.004,-0.024 -0.005,-0.028c-0.003,-0.011 -0.01,-0.023 -0.02,-0.037l0.035,-0.083c0.005,-0.014 0.01,-0.021 0.014,-0.021c0.004,0 0.01,0.007 0.019,0.021l0.088,0.141c0.012,0.019 0.017,0.033 0.017,0.041c0,0.006 -0.003,0.01 -0.009,0.01c-0.011,0 -0.03,-0.009 -0.057,-0.027c0.007,0.054 0.025,0.122 0.053,0.205c0,0.006 -0.009,0.013 -0.027,0.022c-0.018,0.01 -0.032,0.014 -0.043,0.014c-0.005,0 -0.008,-0.001 -0.009,-0.004Z" style="fill:#fff;fill-rule:nonzero;"/></g><g><path d="M1.894,2.326c0.02,-0 0.03,-0.005 0.03,-0.016c0,-0.016 -0.014,-0.029 -0.042,-0.041c-0.021,-0.009 -0.055,-0.009 -0.102,-0.001c0.025,0.038 0.063,0.058 0.114,0.058Zm-0.903,0.405c-0.051,0 -0.095,-0.023 -0.133,-0.068c-0.04,-0.047 -0.06,-0.106 -0.06,-0.174c0,-0.095 0.039,-0.218 0.117,-0.369c0.008,-0.016 0.014,-0.024 0.019,-0.024c0.002,-0 0.003,0.002 0.003,0.006c0,0.016 -0.017,0.069 -0.051,0.159c-0.033,0.091 -0.05,0.163 -0.05,0.215c0,0.04 0.009,0.072 0.028,0.096c0.021,0.026 0.049,0.04 0.084,0.04c0.058,0 0.112,-0.019 0.163,-0.057c0.063,-0.054 0.126,-0.109 0.188,-0.163c0.114,-0.096 0.227,-0.169 0.339,-0.22l0.071,-0.032c0.06,-0.021 0.112,-0.031 0.155,-0.031c0.043,0 0.078,0.018 0.103,0.055c0.025,0.036 0.038,0.084 0.038,0.144c0,0.05 -0.011,0.091 -0.032,0.123c-0.022,0.032 -0.05,0.048 -0.085,0.048c-0.049,0 -0.096,-0.024 -0.141,-0.071c-0.034,-0.035 -0.059,-0.073 -0.076,-0.113c-0.083,0.033 -0.179,0.092 -0.286,0.177c-0.079,0.064 -0.157,0.129 -0.235,0.194c-0.058,0.044 -0.111,0.066 -0.159,0.066l0,-0.001Z" style="fill:#fff;fill-rule:nonzero;"/></g><path d="M1.567,2.599l0,0.089c0,0.007 -0.002,0.011 -0.005,0.013c-0.005,0.002 -0.031,-0 -0.077,-0.007c-0.046,-0.007 -0.071,-0.013 -0.073,-0.017c-0.007,-0.015 -0.008,-0.056 -0.001,-0.12c0,-0.008 0.004,-0.011 0.009,-0.01c0.041,0.007 0.087,0.014 0.137,0.02c-0.001,-0.035 0,-0.066 0.002,-0.092c0.001,-0.008 0.004,-0.011 0.009,-0.01c0.048,0.009 0.095,0.016 0.143,0.021c0.003,0.001 0.004,0.003 0.004,0.009l0,0.111c0,0.007 -0.002,0.011 -0.005,0.013c-0.004,0.002 -0.025,-0 -0.064,-0.005c-0.039,-0.006 -0.066,-0.011 -0.079,-0.015Z" style="fill:#fff;fill-rule:nonzero;"/><g><path d="M1.957,3.332c0,0.026 -0.011,0.056 -0.033,0.089c-0.022,0.035 -0.05,0.065 -0.085,0.089c-0.014,0.01 -0.022,0.015 -0.024,0.015c-0.001,0 -0.001,0 -0.001,-0.001c0,-0.002 0.006,-0.01 0.018,-0.022c0.057,-0.063 0.086,-0.105 0.086,-0.126c0,-0.02 -0.01,-0.03 -0.028,-0.03c-0.01,0 -0.02,0.003 -0.028,0.009c-0.006,0.004 -0.01,0.006 -0.011,0.007c-0.001,-0.001 -0.002,-0.002 -0.004,-0.003c0,-0.002 0.002,-0.007 0.002,-0.016c0.01,-0.043 0.031,-0.064 0.065,-0.064c0.028,0 0.042,0.017 0.042,0.053l0.001,-0Z" style="fill:#fff;fill-rule:nonzero;"/></g><g><path d="M2.422,1.271c0,0.026 -0.011,0.056 -0.032,0.089c-0.022,0.035 -0.05,0.065 -0.085,0.089c-0.014,0.01 -0.022,0.015 -0.025,0.015l0,-0.001c0,-0.002 0.005,-0.01 0.017,-0.022c0.057,-0.063 0.086,-0.104 0.086,-0.125c0,-0.02 -0.009,-0.03 -0.028,-0.03c-0.01,-0 -0.019,0.003 -0.027,0.008c-0.006,0.004 -0.01,0.007 -0.012,0.007c-0.001,-0.001 -0.002,-0.001 -0.003,-0.002c0,-0.002 0.001,-0.007 0.003,-0.016c0.009,-0.043 0.03,-0.064 0.064,-0.064c0.028,0 0.042,0.017 0.042,0.052Z" style="fill:#fff;fill-rule:nonzero;"/></g><g><path d="M2.356,3.84c-0.01,-0.023 -0.013,-0.055 -0.007,-0.094c0.006,-0.041 0.02,-0.079 0.042,-0.116c0.009,-0.014 0.014,-0.022 0.016,-0.023l0.001,0c0.001,0.002 -0.001,0.011 -0.007,0.028c-0.026,0.08 -0.036,0.13 -0.027,0.149c0.008,0.018 0.02,0.023 0.036,0.016c0.01,-0.004 0.017,-0.011 0.022,-0.019c0.004,-0.006 0.007,-0.01 0.008,-0.011c0.001,0.001 0.003,0.001 0.004,0.001c0.001,0.002 0.002,0.007 0.004,0.016c0.009,0.043 -0.002,0.071 -0.032,0.085c-0.025,0.011 -0.045,0.001 -0.06,-0.032Z" style="fill:#fff;fill-rule:nonzero;"/></g><g><path d="M2.773,1.402c0,0.026 -0.011,0.056 -0.033,0.089c-0.022,0.035 -0.05,0.064 -0.085,0.089c-0.014,0.01 -0.022,0.015 -0.025,0.015l0,-0.001c0,-0.002 0.005,-0.01 0.017,-0.022c0.057,-0.063 0.086,-0.104 0.086,-0.126c0,-0.019 -0.009,-0.029 -0.028,-0.029c-0.01,-0 -0.019,0.003 -0.027,0.008c-0.006,0.004 -0.01,0.006 -0.011,0.007c-0.001,-0.001 -0.002,-0.002 -0.004,-0.002c0.001,-0.002 0.002,-0.008 0.003,-0.016c0.009,-0.043 0.031,-0.065 0.065,-0.065c0.028,-0 0.042,0.018 0.042,0.053Z" style="fill:#fff;fill-rule:nonzero;"/></g><g><path d="M0.919,1.93c-0.005,-0.014 -0.005,-0.031 0,-0.052c0.005,-0.022 0.014,-0.043 0.027,-0.062c0.005,-0.008 0.009,-0.012 0.01,-0.013l0,0.001c0.001,0.001 -0.001,0.006 -0.004,0.014c-0.018,0.044 -0.025,0.071 -0.021,0.082c0.004,0.01 0.01,0.013 0.02,0.01c0.005,-0.002 0.009,-0.005 0.013,-0.01c0.002,-0.003 0.003,-0.005 0.004,-0.006c0.001,0.001 0.002,0.001 0.003,0.001c0,0.001 0,0.004 0.001,0.009c0.003,0.024 -0.004,0.039 -0.021,0.045c-0.015,0.006 -0.025,-0.001 -0.032,-0.019Z" style="fill:#fff;fill-rule:nonzero;"/></g><g><path d="M1.154,2.003c0,0.02 -0.008,0.043 -0.025,0.069c-0.017,0.027 -0.039,0.05 -0.065,0.069c-0.011,0.007 -0.017,0.011 -0.019,0.011c-0.001,-0 -0.001,-0 -0.001,-0.001c-0,-0.001 0.005,-0.007 0.014,-0.017c0.044,-0.048 0.066,-0.08 0.066,-0.096c-0,-0.016 -0.007,-0.023 -0.021,-0.023c-0.008,-0 -0.015,0.002 -0.022,0.006c-0.004,0.003 -0.007,0.005 -0.008,0.006c-0.001,-0.001 -0.002,-0.002 -0.003,-0.002c-0,-0.002 0.001,-0.006 0.002,-0.013c0.007,-0.033 0.023,-0.049 0.05,-0.049c0.021,0 0.032,0.012 0.032,0.04Z" style="fill:#fff;fill-rule:nonzero;"/></g><g><path d="M1.583,3.608c0.009,-0 0.017,-0.004 0.025,-0.012c0.01,-0.009 0.014,-0.02 0.014,-0.034c0,-0.014 -0.008,-0.022 -0.025,-0.022c-0.007,-0 -0.014,0.002 -0.019,0.007c0,-0.009 0.006,-0.022 0.018,-0.041c0.011,-0.017 0.022,-0.03 0.033,-0.041c0.003,-0.003 0.003,-0.005 0.003,-0.008c-0.001,-0.002 -0.003,-0.002 -0.006,0c-0.014,0.009 -0.029,0.025 -0.045,0.049c-0.019,0.026 -0.028,0.05 -0.028,0.07c0,0.021 0.01,0.032 0.03,0.032Z" style="fill:#fff;fill-rule:nonzero;"/></g><g><path d="M1.44,1.28c0,0.026 -0.011,0.056 -0.032,0.089c-0.022,0.035 -0.051,0.064 -0.085,0.089c-0.014,0.009 -0.022,0.015 -0.025,0.015l0,-0.001c0,-0.002 0.005,-0.01 0.017,-0.023c0.057,-0.062 0.086,-0.104 0.086,-0.125c0,-0.019 -0.009,-0.029 -0.028,-0.029c-0.01,-0 -0.019,0.002 -0.027,0.008c-0.006,0.004 -0.01,0.006 -0.012,0.007c-0.001,-0.001 -0.002,-0.002 -0.004,-0.002c0.001,-0.002 0.002,-0.008 0.003,-0.016c0.01,-0.043 0.031,-0.065 0.065,-0.065c0.028,-0 0.042,0.018 0.042,0.053Z" style="fill:#fff;fill-rule:nonzero;"/></g><g><path d="M1.863,0.981c-0.006,0.012 -0.017,0.022 -0.033,0.032c-0.017,0.011 -0.036,0.018 -0.056,0.021c-0.008,0.001 -0.013,0.002 -0.014,0.001c0.001,-0.001 0.005,-0.003 0.012,-0.006c0.039,-0.015 0.06,-0.027 0.064,-0.037c0.004,-0.008 0.003,-0.014 -0.006,-0.018c-0.004,-0.002 -0.009,-0.003 -0.013,-0.002l-0.007,0c0,-0.001 0,-0.001 -0.001,-0.002c0,0 0.002,-0.003 0.004,-0.006c0.013,-0.017 0.027,-0.022 0.042,-0.015c0.012,0.006 0.014,0.017 0.008,0.032Z" style="fill:#fff;fill-rule:nonzero;"/></g><g><path d="M2.113,0.88c0.006,-0.011 0.016,-0.022 0.033,-0.032c0.016,-0.011 0.035,-0.018 0.055,-0.021c0.008,-0.002 0.013,-0.002 0.014,-0.002l0,0.001c0,0.001 -0.004,0.003 -0.012,0.006c-0.038,0.015 -0.059,0.028 -0.064,0.037c-0.004,0.009 -0.002,0.015 0.006,0.019c0.005,0.002 0.009,0.002 0.014,0.002c0.004,-0.001 0.006,-0.001 0.007,-0.001c0,0.001 0,0.001 0.001,0.002c-0.001,0.001 -0.002,0.003 -0.005,0.006c-0.013,0.017 -0.026,0.022 -0.041,0.015c-0.013,-0.006 -0.015,-0.016 -0.008,-0.032Z" style="fill:#fff;fill-rule:nonzero;"/></g><g><path d="M2.428,2.723c0.01,0 0.019,-0.004 0.028,-0.013c0.01,-0.01 0.015,-0.022 0.015,-0.037c0,-0.017 -0.009,-0.025 -0.028,-0.025c-0.008,0 -0.015,0.003 -0.021,0.008c0,-0.01 0.007,-0.025 0.02,-0.045c0.012,-0.019 0.024,-0.033 0.036,-0.044c0.003,-0.004 0.004,-0.006 0.003,-0.009c-0.001,-0.002 -0.003,-0.002 -0.006,0c-0.015,0.009 -0.032,0.027 -0.05,0.053c-0.02,0.029 -0.03,0.055 -0.03,0.076c-0,0.023 0.01,0.035 0.032,0.035l0.001,0.001Z" style="fill:#fff;fill-rule:nonzero;"/></g><g><path d="M1.293,2.942c0.009,0 0.017,-0.004 0.026,-0.012c0.009,-0.009 0.013,-0.02 0.013,-0.033c0,-0.015 -0.008,-0.023 -0.025,-0.023c-0.007,-0 -0.013,0.003 -0.019,0.007c0,-0.009 0.006,-0.022 0.019,-0.04c0.01,-0.017 0.021,-0.031 0.032,-0.041c0.003,-0.003 0.004,-0.005 0.003,-0.008c-0.001,-0.002 -0.003,-0.002 -0.006,-0c-0.014,0.008 -0.029,0.025 -0.045,0.049c-0.018,0.026 -0.027,0.049 -0.027,0.069c0,0.021 0.009,0.032 0.029,0.032Z" style="fill:#fff;fill-rule:nonzero;"/></g><g><path d="M2.929,3.017c0.001,-0.002 0.002,-0.004 0.003,-0.005c0.001,-0.001 0.002,0 0.002,0.001l0,0.005c-0.01,0.052 -0.025,0.078 -0.047,0.078c-0.023,0 -0.034,-0.019 -0.034,-0.058c0,-0.047 0.013,-0.096 0.041,-0.147c0.006,-0.014 0.01,-0.02 0.012,-0.02l0,0.001c0,0.002 -0.002,0.009 -0.006,0.021c-0.017,0.054 -0.026,0.092 -0.026,0.113c0,0.029 0.008,0.044 0.024,0.044c0.009,0 0.019,-0.011 0.031,-0.033Z" style="fill:#fff;fill-rule:nonzero;"/></g><g><path d="M1.012,3.032c0.001,-0.004 0.003,-0.006 0.004,-0.007c0.001,-0.001 0.002,-0 0.002,0.001c0.001,0.001 0.001,0.004 0,0.008c-0.003,0.029 -0.012,0.055 -0.025,0.078c-0.013,0.023 -0.027,0.034 -0.042,0.034c-0.017,0.001 -0.03,-0.008 -0.038,-0.026c-0.009,-0.018 -0.013,-0.042 -0.012,-0.072c0.002,-0.037 0.013,-0.084 0.034,-0.142c0.018,-0.049 0.034,-0.083 0.047,-0.103c0.009,-0.012 0.014,-0.018 0.016,-0.018c0,0.002 -0.002,0.008 -0.007,0.02c-0.031,0.069 -0.05,0.132 -0.058,0.19c-0.001,0.006 -0.001,0.013 -0.001,0.019c0,0.046 0.011,0.068 0.034,0.066c0.014,-0.001 0.029,-0.017 0.046,-0.048Z" style="fill:#fff;fill-rule:nonzero;"/></g><g><path d="M1.069,1.59c0.02,-0 0.04,0.019 0.06,0.058c0.019,0.036 0.031,0.076 0.039,0.12c0,0.004 0.001,0.006 0.001,0.007c0.001,0.001 0.001,0.001 0.001,-0c0.001,-0.001 0.002,-0.003 0.003,-0.007c0.006,-0.038 0.016,-0.088 0.031,-0.15c0.015,-0.035 0.031,-0.052 0.048,-0.052c0.009,-0 0.017,0.006 0.026,0.018c0.008,0.01 0.012,0.018 0.012,0.025c0,0.005 -0.002,0.011 -0.004,0.019c-0.004,0.011 -0.008,0.016 -0.012,0.016c-0.002,-0 -0.006,-0.004 -0.013,-0.012c-0.006,-0.008 -0.013,-0.012 -0.02,-0.012c-0.014,-0 -0.03,0.049 -0.048,0.148c-0.006,0.032 -0.012,0.054 -0.019,0.067c-0.005,0.009 -0.009,0.013 -0.013,0.013c-0.003,-0 -0.004,-0.004 -0.004,-0.012c0,-0.013 -0.009,-0.044 -0.025,-0.093c-0.017,-0.05 -0.028,-0.076 -0.034,-0.076c-0.004,-0 -0.007,0.002 -0.008,0.004c-0.001,0.003 -0.004,0.004 -0.01,0.004c-0.007,-0 -0.015,-0.005 -0.026,-0.014c-0.01,-0.01 -0.015,-0.017 -0.015,-0.023c0,-0.003 0.004,-0.011 0.013,-0.026c0.009,-0.015 0.014,-0.022 0.017,-0.022Z" style="fill:#fff;fill-rule:nonzero;"/></g><path d="M3.756,1.704c0,-0.05 -0.008,-0.09 -0.023,-0.121c0,-0.021 0.014,-0.063 0.043,-0.128c0.005,-0.014 0.012,-0.014 0.019,0.001c0.009,0.017 0.027,0.065 0.057,0.144c0.031,0.082 0.05,0.132 0.055,0.152c0.004,0.013 0.006,0.024 0.006,0.031c0,0.023 -0.022,0.01 -0.066,-0.041c-0.005,-0.006 -0.007,-0.003 -0.007,0.01c0,0.005 0.016,0.228 0.048,0.669c0.032,0.441 0.048,0.681 0.048,0.72c0,0.12 -0.019,0.225 -0.055,0.314c-0.007,0.019 -0.014,0.032 -0.018,0.04c-0.008,0.012 -0.012,0.013 -0.013,0.005c-0.002,-0.009 -0.002,-0.028 0.002,-0.058c0.005,-0.041 0.007,-0.089 0.007,-0.143c0,-0.048 -0.017,-0.315 -0.052,-0.801c-0.034,-0.486 -0.051,-0.751 -0.051,-0.794Z" style="fill:#fff;fill-rule:nonzero;"/><g><path d="M2.553,2.087c0,-0.05 -0.007,-0.09 -0.022,-0.122c0,-0.02 0.014,-0.062 0.042,-0.127c0.006,-0.015 0.013,-0.014 0.02,0.001c0.009,0.017 0.027,0.065 0.057,0.144c0.031,0.081 0.049,0.132 0.054,0.151c0.004,0.014 0.007,0.025 0.007,0.032c0,0.022 -0.022,0.009 -0.066,-0.041c-0.005,-0.007 -0.007,-0.004 -0.007,0.01c0,0.004 0.013,0.194 0.041,0.57c0.028,0.375 0.041,0.582 0.041,0.621c0,0.119 -0.018,0.224 -0.055,0.314c-0.007,0.018 -0.013,0.031 -0.018,0.04c-0.007,0.011 -0.012,0.013 -0.013,0.005c-0.002,-0.009 -0.001,-0.028 0.002,-0.058c0.005,-0.041 0.007,-0.088 0.007,-0.143c0,-0.048 -0.015,-0.282 -0.045,-0.703c-0.03,-0.42 -0.045,-0.652 -0.045,-0.694Z" style="fill:#fff;fill-rule:nonzero;"/></g><g><path d="M2.419,3.241c0,0.095 -0.021,0.167 -0.064,0.217c-0.068,0.078 -0.167,0.154 -0.298,0.228c-0.165,0.092 -0.319,0.138 -0.462,0.138c-0.192,-0 -0.325,-0.094 -0.397,-0.282c-0.014,-0.037 -0.021,-0.084 -0.021,-0.141c0,-0.038 0.002,-0.076 0.009,-0.115c0.009,-0.057 0.022,-0.108 0.038,-0.15c0.005,-0.013 0.01,-0.02 0.015,-0.02c0.005,-0 0.007,0.008 0.003,0.026c-0.006,0.026 -0.012,0.053 -0.018,0.079c-0.01,0.047 -0.015,0.082 -0.015,0.104c0,0.078 0.026,0.149 0.078,0.214c0.07,0.087 0.172,0.131 0.306,0.131c0.117,0.001 0.242,-0.027 0.374,-0.083c0.106,-0.043 0.202,-0.099 0.286,-0.165c0.077,-0.059 0.115,-0.102 0.115,-0.127c0,-0.005 -0.015,-0.038 -0.047,-0.1c-0.038,-0.074 -0.067,-0.145 -0.085,-0.215c-0.007,-0.023 -0.016,-0.039 -0.025,-0.047c-0.01,-0.009 -0.014,-0.017 -0.014,-0.026c-0,-0.007 0.006,-0.045 0.02,-0.114c0.003,-0.012 0.006,-0.018 0.01,-0.018c0.004,0 0.01,0.003 0.016,0.009c0.018,0.021 0.061,0.064 0.125,0.127c0.01,0.011 0.016,0.019 0.016,0.025c0,0.007 -0.006,0.01 -0.019,0.01c-0.014,-0 -0.033,-0.004 -0.06,-0.012c0.002,0.008 0.024,0.053 0.065,0.135c0.032,0.067 0.048,0.124 0.048,0.172l0.001,-0Z" style="fill:#fff;fill-rule:nonzero;"/></g><path d="M1.874,3.055c-0.002,-0.001 -0.002,-0.004 0,-0.009l0.049,-0.101c0.003,-0.006 0.006,-0.009 0.01,-0.009c0.005,-0 0.027,0.014 0.066,0.04c0.038,0.027 0.058,0.042 0.058,0.047c0,0.017 -0.017,0.054 -0.052,0.109c-0.004,0.007 -0.008,0.009 -0.013,0.005c-0.038,-0.029 -0.077,-0.056 -0.118,-0.082Z" style="fill:#fff;fill-rule:nonzero;"/><path d="M3.232,2.945l0.039,-0.081c0.003,-0.006 0.006,-0.009 0.01,-0.009c0.005,0 0.027,0.014 0.066,0.04c0.038,0.027 0.058,0.042 0.058,0.047c0,0.017 -0.017,0.053 -0.051,0.109c-0.004,0.006 -0.009,0.008 -0.013,0.005c-0.034,-0.025 -0.072,-0.051 -0.115,-0.079c-0.014,0.032 -0.028,0.06 -0.042,0.082c-0.004,0.007 -0.008,0.009 -0.013,0.006c-0.038,-0.03 -0.078,-0.057 -0.118,-0.083c-0.003,-0.001 -0.003,-0.004 0,-0.009l0.049,-0.1c0.003,-0.006 0.006,-0.009 0.009,-0.01c0.005,0.001 0.024,0.012 0.056,0.034c0.033,0.022 0.055,0.038 0.065,0.048Z" style="fill:#fff;fill-rule:nonzero;"/><g><path d="M3.114,2.524c0.005,-0.013 0.005,-0.027 0.003,-0.041c-0.003,-0.015 -0.01,-0.023 -0.021,-0.023c-0.005,0 -0.012,0.003 -0.021,0.008c-0.009,0.005 -0.014,0.01 -0.014,0.014c0,0.011 0.018,0.026 0.053,0.042Zm-0.027,0.062c-0.045,-0.023 -0.067,-0.047 -0.067,-0.072c0.001,-0.031 0.014,-0.058 0.042,-0.084c0.029,-0.025 0.052,-0.034 0.071,-0.027c0.015,0.005 0.023,0.022 0.023,0.05c0,0.025 -0.005,0.054 -0.016,0.085c0.022,0.013 0.037,0.024 0.042,0.033c0,0.012 -0.01,0.032 -0.03,0.06c-0.005,-0.008 -0.019,-0.019 -0.041,-0.032c-0.024,0.034 -0.056,0.065 -0.094,0.093c-0.043,0.032 -0.083,0.056 -0.119,0.073c-0.007,0.003 -0.049,0.019 -0.125,0.047c-0.013,0.005 -0.02,0.007 -0.024,0.007c-0.002,0 -0.002,-0.001 -0.002,-0.001c-0.001,-0.003 0.006,-0.009 0.019,-0.018c0.056,-0.033 0.113,-0.067 0.169,-0.101c0.068,-0.04 0.118,-0.078 0.152,-0.113Z" style="fill:#fff;fill-rule:nonzero;"/></g><g><path d="M3.026,3.256c0,0.034 -0.011,0.066 -0.035,0.097c-0.024,0.034 -0.054,0.051 -0.087,0.051c-0.034,-0 -0.052,-0.017 -0.052,-0.051c0,-0.024 0.014,-0.06 0.041,-0.106c0.028,-0.046 0.051,-0.069 0.07,-0.069c0.017,-0 0.032,0.007 0.045,0.022c0.012,0.015 0.018,0.033 0.018,0.056Zm-0.029,0.038c0,-0.031 -0.022,-0.047 -0.065,-0.047c-0.006,0 -0.017,0.01 -0.031,0.029c-0.014,0.02 -0.021,0.034 -0.021,0.042c0.005,0.011 0.021,0.017 0.048,0.017c0.046,-0 0.069,-0.014 0.069,-0.041Z" style="fill:#fff;fill-rule:nonzero;"/></g><g><path d="M2.8,1.643c0.02,0 0.031,0.01 0.031,0.03c0,0.011 -0.003,0.023 -0.009,0.034c-0.004,0.008 -0.013,0.021 -0.028,0.039c-0.021,0.024 -0.035,0.042 -0.043,0.052c-0.012,0.016 -0.019,0.024 -0.021,0.024c0,0 -0.001,0 -0.001,-0.001c0,-0.002 0.002,-0.007 0.006,-0.017c0.008,-0.02 0.021,-0.04 0.04,-0.062c0.01,-0.011 0.021,-0.023 0.032,-0.035c-0.004,-0.01 -0.01,-0.015 -0.02,-0.015c-0.006,0 -0.014,0.002 -0.024,0.007c-0.093,0.047 -0.183,0.071 -0.27,0.071c-0.048,0 -0.091,-0.01 -0.13,-0.031c0.006,0.018 0.004,0.04 -0.006,0.065c-0.003,0.01 -0.006,0.016 -0.008,0.016c-0,0 -0.001,-0.006 -0.001,-0.019c0,-0.022 -0.004,-0.042 -0.011,-0.058c-0.001,-0.002 -0.012,-0.02 -0.035,-0.053c0.004,-0.023 0.01,-0.034 0.017,-0.034c0,0 0.006,0.004 0.017,0.012c0.013,0.011 0.026,0.019 0.039,0.026c0.04,0.021 0.083,0.031 0.13,0.031c0.049,0 0.096,-0.007 0.142,-0.021c0.027,-0.008 0.059,-0.022 0.096,-0.04c0.029,-0.014 0.048,-0.021 0.057,-0.021Z" style="fill:#fff;fill-rule:nonzero;"/></g><path d="M1.738,3.196c0,0.009 -0.012,0.031 -0.037,0.065c-0.027,0.038 -0.053,0.066 -0.077,0.083c-0.016,0.011 -0.069,0.029 -0.157,0.052c-0.016,0.004 -0.024,0.005 -0.024,0.004c0.001,-0.001 0.006,-0.006 0.016,-0.013c0.012,-0.009 0.043,-0.027 0.095,-0.055c0.05,-0.026 0.079,-0.043 0.087,-0.05c0.002,-0.002 0.003,-0.003 0.003,-0.005c0,-0.011 -0.045,-0.018 -0.133,-0.018c0,-0 -0.017,0.001 -0.051,0.002c-0.016,0.001 -0.024,-0 -0.024,-0.003c0,-0.002 0.002,-0.007 0.006,-0.014l0.032,-0.053c0.009,-0.015 0.026,-0.025 0.05,-0.029c0.009,-0.002 0.029,-0.002 0.061,-0.002c0.102,0 0.153,0.011 0.153,0.035l0,0.001Z" style="fill:#fff;fill-rule:nonzero;"/><g><path d="M1.608,1.149c0.304,-0.115 0.615,-0.232 0.932,-0.351c0.006,-0.002 0.009,-0.003 0.01,-0.002c0.002,0.001 0.001,0.004 -0.001,0.009c-0.006,0.016 -0.012,0.026 -0.016,0.029c-0.291,0.109 -0.606,0.231 -0.944,0.365c0.004,-0.016 0.01,-0.032 0.019,-0.05Z" style="fill:#fff;fill-rule:nonzero;"/></g><g><path d="M2.201,1.433c0.01,0.006 0.015,0.013 0.015,0.021c0,0.006 -0.002,0.011 -0.007,0.016c-0.015,0.015 -0.024,0.022 -0.028,0.02c0,-0.005 -0.005,-0.014 -0.015,-0.025c-0.007,-0.004 -0.026,-0.005 -0.057,-0.003c-0.032,0.001 -0.059,0.006 -0.079,0.014c-0.007,0.003 -0.01,0.005 -0.01,0.009c0,0.006 0.011,0.015 0.033,0.027c0.016,0.01 0.037,0.019 0.064,0.029c0.026,0.009 0.042,0.016 0.047,0.019c0.033,0.019 0.048,0.04 0.045,0.064c-0.001,0.015 -0.011,0.03 -0.028,0.044c-0.015,0.014 -0.026,0.02 -0.032,0.018c-0.094,-0.022 -0.159,-0.045 -0.197,-0.067c-0.032,-0.018 -0.048,-0.044 -0.048,-0.078c0,-0.006 0.001,-0.012 0.002,-0.017c0.01,0.016 0.031,0.035 0.065,0.054c0.014,0.009 0.051,0.023 0.109,0.043c0.052,0.018 0.084,0.029 0.097,0.032c0.004,-0.018 -0.012,-0.037 -0.049,-0.059c-0.026,-0.009 -0.062,-0.024 -0.106,-0.045c-0.029,-0.017 -0.044,-0.032 -0.044,-0.045c-0,-0.011 0.01,-0.022 0.029,-0.035c0.047,-0.03 0.095,-0.044 0.145,-0.044c0.022,0 0.038,0.002 0.049,0.008Z" style="fill:#fff;fill-rule:nonzero;"/></g><path d="M1.71,2.887c0.182,-0.068 0.371,-0.138 0.566,-0.211c0.005,-0.002 0.009,-0.003 0.01,-0.002c0.001,0.001 0.001,0.004 -0.001,0.009c-0.007,0.016 -0.012,0.026 -0.016,0.029c-0.002,0.003 -0.093,0.037 -0.272,0.104c-0.183,0.068 -0.285,0.108 -0.306,0.121c0.004,-0.015 0.01,-0.032 0.019,-0.05Z" style="fill:#fff;fill-rule:nonzero;"/><g><path d="M1.538,1.796c-0.002,0.007 -0.017,0.019 -0.044,0.037c-0.03,0.02 -0.057,0.034 -0.08,0.04c-0.014,0.004 -0.057,0.002 -0.129,-0.005c-0.013,-0.002 -0.019,-0.003 -0.018,-0.003c0.001,-0.001 0.006,-0.003 0.015,-0.006c0.011,-0.003 0.039,-0.008 0.085,-0.014c0.043,-0.005 0.069,-0.01 0.077,-0.013c0.002,-0.001 0.003,-0.001 0.003,-0.002c0.003,-0.009 -0.027,-0.025 -0.092,-0.05c0,0 -0.013,-0.004 -0.038,-0.012c-0.012,-0.004 -0.017,-0.007 -0.016,-0.009c0,-0.002 0.003,-0.004 0.008,-0.008l0.037,-0.031c0.011,-0.008 0.026,-0.011 0.045,-0.007c0.007,0.001 0.022,0.006 0.045,0.015c0.075,0.028 0.109,0.05 0.102,0.068Z" style="fill:#fff;fill-rule:nonzero;"/></g><g><path d="M1.456,2.079c0.009,0.011 0.013,0.033 0.014,0.065c0.001,0.033 -0.004,0.054 -0.013,0.066c-0.003,0.002 -0.013,0.006 -0.029,0.01c-0.017,0.005 -0.027,0.006 -0.029,0.005c-0.02,-0.014 -0.039,-0.028 -0.059,-0.042c-0.025,-0.016 -0.046,-0.024 -0.063,-0.025c-0.055,0.086 -0.119,0.159 -0.192,0.219c-0.021,0.017 -0.045,0.033 -0.072,0.046c-0.009,0.004 -0.014,0.006 -0.015,0.006c-0.002,-0.002 0.01,-0.014 0.036,-0.035c0.042,-0.034 0.087,-0.082 0.137,-0.143c0.049,-0.061 0.078,-0.095 0.087,-0.103c0.03,-0.024 0.058,-0.033 0.086,-0.028c0.013,0.003 0.032,0.013 0.057,0.029c0.001,-0.016 -0.001,-0.028 -0.008,-0.037c-0.004,-0.004 -0.013,-0.005 -0.029,-0.005c-0.015,0 -0.023,0 -0.024,-0.001c-0.001,-0.002 0.002,-0.006 0.011,-0.012c0.051,-0.032 0.086,-0.038 0.105,-0.015Z" style="fill:#fff;fill-rule:nonzero;"/></g><g><path d="M4.099,1.956c0,0.032 -0.013,0.067 -0.038,0.107c-0.027,0.042 -0.061,0.078 -0.102,0.107c-0.017,0.012 -0.027,0.017 -0.03,0.017c-0.001,-0 -0.001,-0 -0.001,-0.001c0,-0.002 0.007,-0.011 0.021,-0.026c0.068,-0.075 0.103,-0.125 0.103,-0.15c0,-0.024 -0.011,-0.036 -0.033,-0.036c-0.013,-0 -0.024,0.003 -0.034,0.01c-0.007,0.005 -0.011,0.008 -0.013,0.008c-0.002,-0.001 -0.003,-0.002 -0.005,-0.002c0.001,-0.003 0.002,-0.009 0.004,-0.02c0.011,-0.051 0.037,-0.077 0.077,-0.077c0.034,-0 0.051,0.021 0.051,0.063Z" style="fill:#fff;fill-rule:nonzero;"/></g><g><path d="M2.951,3.812c0.029,0 0.055,0.017 0.077,0.051c0.023,0.034 0.039,0.078 0.048,0.133c0.001,0.006 0.002,0.009 0.002,0.01c0.001,0.001 0.001,0.001 0.002,0c0,-0.001 0.002,-0.004 0.004,-0.01c0.004,-0.033 0.016,-0.082 0.033,-0.146c0.02,-0.047 0.041,-0.07 0.064,-0.07c0.012,-0 0.023,0.008 0.035,0.024c0.01,0.013 0.015,0.024 0.015,0.033c0,0.007 -0.002,0.016 -0.006,0.026c-0.004,0.015 -0.009,0.022 -0.016,0.022c-0.002,-0 -0.008,-0.006 -0.017,-0.017c-0.008,-0.011 -0.017,-0.016 -0.026,-0.016c-0.021,0 -0.04,0.048 -0.057,0.145c-0.008,0.042 -0.016,0.071 -0.025,0.088c-0.007,0.012 -0.012,0.018 -0.017,0.018c-0.004,0 -0.006,-0.006 -0.006,-0.016c0,-0.017 -0.01,-0.05 -0.029,-0.099c-0.02,-0.048 -0.033,-0.073 -0.042,-0.073c-0.005,0 -0.009,0.002 -0.01,0.006c-0.002,0.003 -0.006,0.005 -0.014,0.005c-0.009,0 -0.02,-0.006 -0.034,-0.019c-0.014,-0.013 -0.021,-0.023 -0.021,-0.031c0,-0.003 0.005,-0.015 0.017,-0.035c0.012,-0.019 0.02,-0.029 0.023,-0.029Z" style="fill:#fff;fill-rule:nonzero;"/></g><g><path d="M3.989,2.39c0.02,-0 0.039,0.018 0.059,0.056c0.017,0.034 0.03,0.072 0.037,0.115c0,0.004 0.001,0.006 0.001,0.007c0,0.001 0.001,0.001 0.002,0c0,-0.001 0.001,-0.003 0.002,-0.007c0.006,-0.037 0.015,-0.085 0.03,-0.144c0.014,-0.034 0.029,-0.05 0.046,-0.05c0.008,-0 0.017,0.005 0.025,0.017c0.008,0.009 0.011,0.018 0.011,0.024c-0,0.005 -0.001,0.011 -0.004,0.018c-0.003,0.011 -0.007,0.016 -0.011,0.016c-0.002,0 -0.006,-0.004 -0.012,-0.012c-0.007,-0.007 -0.013,-0.011 -0.02,-0.011c-0.013,0 -0.029,0.047 -0.046,0.142c-0.006,0.03 -0.011,0.051 -0.018,0.064c-0.005,0.009 -0.009,0.013 -0.012,0.013c-0.003,0 -0.005,-0.004 -0.005,-0.012c-0,-0.012 -0.008,-0.042 -0.023,-0.089c-0.017,-0.049 -0.027,-0.073 -0.033,-0.073c-0.004,0 -0.007,0.001 -0.008,0.004c-0.001,0.003 -0.004,0.004 -0.01,0.004c-0.006,0 -0.014,-0.005 -0.024,-0.014c-0.01,-0.009 -0.015,-0.017 -0.015,-0.022c-0,-0.002 0.004,-0.011 0.012,-0.025c0.009,-0.014 0.014,-0.021 0.016,-0.021Z" style="fill:#fff;fill-rule:nonzero;"/></g><g><path d="M4.06,3.043c0.017,0 0.033,-0.007 0.049,-0.022c0.017,-0.017 0.026,-0.039 0.026,-0.064c-0,-0.029 -0.016,-0.043 -0.047,-0.043c-0.014,-0 -0.027,0.004 -0.037,0.013c-0,-0.017 0.012,-0.042 0.035,-0.077c0.021,-0.033 0.042,-0.058 0.062,-0.077c0.005,-0.006 0.007,-0.011 0.005,-0.015c-0.001,-0.004 -0.005,-0.004 -0.01,-0.001c-0.027,0.016 -0.056,0.048 -0.087,0.093c-0.035,0.051 -0.052,0.094 -0.052,0.131c-0,0.041 0.019,0.062 0.056,0.062Z" style="fill:#fff;fill-rule:nonzero;"/></g><g><path d="M1.986,3.884c0,0.026 -0.01,0.056 -0.032,0.089c-0.022,0.035 -0.05,0.065 -0.085,0.089c-0.014,0.01 -0.022,0.015 -0.025,0.015l0,-0.001c0,-0.002 0.006,-0.01 0.017,-0.022c0.057,-0.063 0.086,-0.104 0.086,-0.125c0,-0.02 -0.009,-0.03 -0.027,-0.03c-0.011,0 -0.02,0.003 -0.028,0.008c-0.006,0.004 -0.01,0.007 -0.011,0.007c-0.002,-0.001 -0.003,-0.002 -0.004,-0.002c0,-0.002 0.001,-0.007 0.003,-0.016c0.009,-0.043 0.03,-0.065 0.064,-0.065c0.028,0 0.042,0.018 0.042,0.053Z" style="fill:#fff;fill-rule:nonzero;"/></g><g><path d="M3.461,3.617l0,-0.001c0.048,-0 0.096,-0.019 0.142,-0.057c0.013,-0.011 0.02,-0.052 0.02,-0.123c0,-0.043 -0.023,-0.379 -0.068,-1.01c-0.046,-0.63 -0.068,-0.972 -0.068,-1.025c0,-0.049 -0.009,-0.09 -0.026,-0.121c0,-0.019 0.014,-0.061 0.043,-0.127c0.003,-0.009 0.006,-0.013 0.009,-0.013c0.004,-0 0.007,0.004 0.011,0.013c0.009,0.018 0.028,0.066 0.058,0.144c0.031,0.081 0.05,0.132 0.056,0.151c0.003,0.015 0.005,0.026 0.005,0.033c0,0.022 -0.022,0.008 -0.065,-0.042c-0.005,-0.007 -0.007,-0.004 -0.007,0.009c0,0.004 0.021,0.302 0.064,0.896c0.043,0.595 0.065,0.917 0.065,0.968c0,0.148 -0.027,0.265 -0.08,0.35c-0.045,0.071 -0.098,0.107 -0.159,0.107l-0.001,0c-0.056,0 -0.114,-0.025 -0.174,-0.075c-0.031,-0.026 -0.056,-0.055 -0.074,-0.085l-0.168,0.071l-0.001,0c-0.078,0.033 -0.137,0.06 -0.176,0.078c-0.077,0.036 -0.129,0.065 -0.158,0.087c-0.052,0.041 -0.129,0.12 -0.229,0.235c-0.06,0.069 -0.12,0.103 -0.18,0.103c-0.05,0 -0.095,-0.022 -0.132,-0.068c-0.04,-0.047 -0.06,-0.105 -0.06,-0.174c0,-0.094 0.039,-0.217 0.116,-0.369c0.009,-0.016 0.015,-0.024 0.019,-0.024c0.003,0.001 0.003,0.003 0.003,0.006c0,0.016 -0.016,0.068 -0.05,0.159c-0.034,0.091 -0.05,0.163 -0.05,0.215c0,0.04 0.009,0.073 0.028,0.097c0.02,0.026 0.048,0.039 0.083,0.039c0.063,0 0.127,-0.032 0.191,-0.096c0.041,-0.049 0.082,-0.097 0.122,-0.146c0.054,-0.059 0.123,-0.113 0.21,-0.16c0.05,-0.027 0.138,-0.068 0.263,-0.12l0.001,0l0.124,-0.053c-0.018,-0.049 -0.026,-0.099 -0.026,-0.149c0,-0.077 0.011,-0.139 0.034,-0.185c0.022,-0.046 0.052,-0.07 0.09,-0.07c0.033,0 0.064,0.028 0.093,0.083c0.026,0.049 0.039,0.094 0.039,0.134c0,0.101 -0.03,0.184 -0.089,0.248c0.042,0.044 0.093,0.066 0.151,0.066l0.001,0l0,0.001Zm-0.102,-0.249c0,-0.017 -0.013,-0.043 -0.039,-0.078c-0.029,-0.038 -0.054,-0.056 -0.074,-0.056c-0.016,0 -0.032,0.009 -0.047,0.029c-0.015,0.019 -0.023,0.037 -0.023,0.055c0,0.014 0.008,0.04 0.025,0.077c0.015,0.032 0.026,0.054 0.034,0.065c0.021,-0.01 0.046,-0.024 0.074,-0.043c0.033,-0.023 0.05,-0.039 0.05,-0.049Z" style="fill:#fff;fill-rule:nonzero;"/></g><g><path d="M2.765,4.13c0.001,-0.002 0.002,-0.004 0.003,-0.005c0,-0.001 0.001,-0.001 0.001,0.001c0.001,0.001 0.001,0.003 0,0.005c-0.002,0.019 -0.007,0.036 -0.016,0.051c-0.009,0.015 -0.018,0.023 -0.028,0.023c-0.011,0 -0.019,-0.006 -0.025,-0.017c-0.006,-0.012 -0.008,-0.028 -0.008,-0.048c0.001,-0.024 0.011,-0.06 0.029,-0.107c0.015,-0.042 0.028,-0.071 0.04,-0.089c0.005,-0.007 0.008,-0.011 0.01,-0.012c0,0.002 -0.001,0.006 -0.005,0.014c-0.025,0.056 -0.041,0.101 -0.049,0.136c-0.003,0.013 -0.004,0.026 -0.004,0.037c0,0.015 0.003,0.027 0.009,0.035c0.004,0.006 0.008,0.009 0.013,0.008c0.01,-0.002 0.02,-0.013 0.03,-0.032Z" style="fill:#fff;fill-rule:nonzero;"/></g></g></g></g></g></svg>